HIERARCHY
ROOT Hips
{
	OFFSET 0.000000 0.000000 0.000000
	CHANNELS 6 Xposition Yposition Zposition Zrotation Yrotation Xrotation 
	JOINT LHipJoint
	{
		OFFSET 0.000000 0.000000 0.000000
		CHANNELS 3 Zrotation Yrotation Xrotation
		JOINT LeftUpLeg
		{
			OFFSET 1.363060 -1.794630 0.839290
			CHANNELS 3 Zrotation Yrotation Xrotation
			JOINT LeftLeg
			{
				OFFSET 2.448110 -6.726130 0.000000
				CHANNELS 3 Zrotation Yrotation Xrotation
				JOINT LeftFoot
				{
					OFFSET 2.562200 -7.039590 0.000000
					CHANNELS 3 Zrotation Yrotation Xrotation
					JOINT LeftToeBase
					{
						OFFSET 0.157640 -0.433110 2.322550
						CHANNELS 3 Zrotation Yrotation Xrotation
						End Site
						{
							OFFSET 0.000000 0.000000 0.000000
						}
					}
				}
			}
		}
	}
	JOINT RHipJoint
	{
		OFFSET 0.000000 0.000000 0.000000
		CHANNELS 3 Zrotation Yrotation Xrotation
		JOINT RightUpLeg
		{
			OFFSET -1.305520 -1.794630 0.839290
			CHANNELS 3 Zrotation Yrotation Xrotation
			JOINT RightLeg
			{
				OFFSET -2.542530 -6.985550 0.000000
				CHANNELS 3 Zrotation Yrotation Xrotation
				JOINT RightFoot
				{
					OFFSET -2.568260 -7.056230 0.000000
					CHANNELS 3 Zrotation Yrotation Xrotation
					JOINT RightToeBase
					{
						OFFSET -0.164730 -0.452590 2.363150
						CHANNELS 3 Zrotation Yrotation Xrotation
						End Site
						{
							OFFSET 0.000000 0.000000 0.000000
						}
					}
				}
			}
		}
	}
	JOINT LowerBack
	{
		OFFSET 0.000000 0.000000 0.000000
		CHANNELS 3 Zrotation Yrotation Xrotation
		JOINT Spine
		{
			OFFSET 0.028270 2.035590 -0.193380
			CHANNELS 3 Zrotation Yrotation Xrotation
			JOINT Spine1
			{
				OFFSET 0.056720 2.048850 -0.042750
				CHANNELS 3 Zrotation Yrotation Xrotation
				JOINT Neck
				{
					OFFSET 0.000000 0.000000 0.000000
					CHANNELS 3 Zrotation Yrotation Xrotation
					JOINT Neck1
					{
						OFFSET -0.054170 1.746240 0.172020
						CHANNELS 3 Zrotation Yrotation Xrotation
						JOINT Head
						{
							OFFSET 0.104070 1.761360 -0.123970
							CHANNELS 3 Zrotation Yrotation Xrotation
							End Site
							{
								OFFSET 0.000000 0.000000 0.000000
							}
						}
					}
				}
				JOINT LeftShoulder
				{
					OFFSET 0.000000 0.000000 0.000000
					CHANNELS 3 Zrotation Yrotation Xrotation
					JOINT LeftArm
					{
						OFFSET 3.362410 1.200890 -0.311210
						CHANNELS 3 Zrotation Yrotation Xrotation
						JOINT LeftForeArm
						{
							OFFSET 4.983000 -0.000000 -0.000000
							CHANNELS 3 Zrotation Yrotation Xrotation
							JOINT LeftHand
							{
								OFFSET 3.483560 -0.000000 -0.000000
								CHANNELS 3 Zrotation Yrotation Xrotation
								JOINT LeftFingerBase
								{
									OFFSET 0.000000 0.000000 0.000000
									CHANNELS 3 Zrotation Yrotation Xrotation
									JOINT LeftHandIndex1
									{
										OFFSET 0.715260 -0.000000 -0.000000
										CHANNELS 3 Zrotation Yrotation Xrotation
										End Site
										{
											OFFSET 0.000000 0.000000 0.000000
										}
									}
								}
								JOINT LThumb
								{
									OFFSET 0.000000 0.000000 0.000000
									CHANNELS 3 Zrotation Yrotation Xrotation
									End Site
									{
										OFFSET 0.000000 0.000000 0.000000
									}
								}
							}
						}
					}
				}
				JOINT RightShoulder
				{
					OFFSET 0.000000 0.000000 0.000000
					CHANNELS 3 Zrotation Yrotation Xrotation
					JOINT RightArm
					{
						OFFSET -3.136600 1.374050 -0.404650
						CHANNELS 3 Zrotation Yrotation Xrotation
						JOINT RightForeArm
						{
							OFFSET -5.241900 -0.000000 -0.000000
							CHANNELS 3 Zrotation Yrotation Xrotation
							JOINT RightHand
							{
								OFFSET -3.444170 -0.000000 -0.000000
								CHANNELS 3 Zrotation Yrotation Xrotation
								JOINT RightFingerBase
								{
									OFFSET 0.000000 0.000000 0.000000
									CHANNELS 3 Zrotation Yrotation Xrotation
									JOINT RightHandIndex1
									{
										OFFSET -0.622530 -0.000000 -0.000000
										CHANNELS 3 Zrotation Yrotation Xrotation
										End Site
										{
											OFFSET 0.000000 0.000000 0.000000
										}
									}
								}
								JOINT RThumb
								{
									OFFSET 0.000000 0.000000 0.000000
									CHANNELS 3 Zrotation Yrotation Xrotation
									End Site
									{
										OFFSET 0.000000 0.000000 0.000000
									}
								}
							}
						}
					}
				}
			}
		}
	}
}
MOTION
Frames: 5
Frame Time: 0.008333
-5.378158 17.518800 2.185530 150.594377 74.430327 149.313533 1.988239 -3.274307 -1.940830 -15.014954 12.535488 -10.732428 2.790783 12.583936 33.643042 -1.259276 10.808759 7.442517 0.353500 3.819800 10.570400 -7.086266 2.884698 -6.116556 20.205446 -7.143994 2.485221 -2.177698 -10.593190 27.426233 -1.330283 -9.449249 -29.492816 -1.335400 -7.317200 20.658500 -4.217957 1.115775 3.536189 0.093431 1.238654 -0.157436 4.295332 0.395059 7.852330 -6.781574 -0.131404 -18.703574 3.623730 2.330345 13.724534 0.813400 0.783400 13.912400 -7.819859 -2.106195 -1.103317 -81.065869 -1.796776 29.064239 13.469619 -28.621020 -4.341451 -0.397259 0.180709 -14.846712 25.061064 -11.475495 -5.521400 -7.125000 0.000000 0.000000 -1.238600 17.018500 0.822000 10.918605 3.367499 -0.555551 67.578470 2.610353 7.720251 -7.879102 18.984089 -2.770820 1.378564 0.272828 -1.061423 -10.916934 -31.530495 6.517500 7.125000 0.000000 0.000000 22.821200 -60.732400 -9.022100 
-5.346958 17.527729 2.181958 150.866644 74.377394 149.563474 1.963692 -3.275566 -1.928386 -14.898282 11.865965 -10.621734 2.494503 12.163160 32.259829 -1.354365 10.713303 5.756506 0.039100 1.275500 3.507300 -7.100251 2.885154 -6.129923 20.417577 -6.926055 3.028937 -2.097334 -10.439530 26.944365 -1.306039 -9.860149 -29.654420 -1.277100 -7.162100 20.196400 -4.252335 1.042255 3.485431 0.144027 1.121616 -0.206455 4.404319 0.340059 7.764074 -6.522632 0.256565 -18.753813 3.387175 2.784564 13.696768 0.665400 0.972700 13.906300 -7.766160 -2.149650 -1.106955 -81.223831 -1.363738 28.646995 13.618325 -28.820791 -4.413878 -0.385972 0.171893 -14.601052 24.567029 -11.179240 -5.258600 -7.125000 0.000000 0.000000 -1.570500 17.408800 1.029100 10.960788 3.340830 -0.573181 67.468887 2.392500 7.851058 -7.893133 18.988234 -2.758273 1.376225 0.262691 -0.915131 -11.169219 -31.175235 6.584900 7.125000 0.000000 0.000000 22.254700 -60.460100 -8.639900 
-5.320486 17.541805 2.171663 150.736696 74.411210 149.538294 1.941803 -3.275786 -1.917255 -14.922827 11.124389 -10.419782 2.143208 11.645723 30.535327 -1.492501 10.950122 4.084846 0.028000 -1.080500 -2.970200 -7.111840 2.887533 -6.139384 20.529413 -6.673666 3.399881 -2.020879 -10.276246 26.446098 -1.288192 -10.230410 -29.824476 -1.211900 -6.983500 19.666500 -4.296523 0.980629 3.396464 0.184747 1.021766 -0.253440 4.573963 0.293659 7.637872 -6.788919 0.396704 -18.336359 3.391830 2.982126 13.358071 0.738900 1.029200 13.568100 -7.748883 -2.160006 -1.106251 -81.460823 -1.018982 28.271017 13.754460 -28.995745 -4.477060 -0.373373 0.162826 -14.544841 24.003633 -10.975751 -5.027200 -7.125000 0.000000 0.000000 -1.960100 17.701000 1.272100 10.972174 3.322213 -0.569528 67.254915 2.235458 8.135047 -7.915173 19.029321 -2.761580 1.376506 0.272269 -0.955909 -11.261102 -31.152619 6.631700 7.125000 0.000000 0.000000 22.145100 -60.468200 -8.599100 
-5.294119 17.555252 2.155486 150.156276 74.509164 149.006188 1.922198 -3.277194 -1.904105 -15.039057 10.394322 -10.145042 1.791058 11.094769 28.717147 -1.667853 11.420224 2.295966 0.279400 -3.399900 -9.394200 -7.112059 2.898776 -6.161433 20.528582 -6.336069 3.877436 -1.946445 -10.093345 25.921138 -1.280896 -10.545340 -30.020225 -1.200500 -6.951700 19.572300 -4.411105 0.954837 3.352575 0.212329 0.976815 -0.284865 4.730471 0.272703 7.542717 -6.935370 0.540496 -18.050867 3.262638 3.171802 13.131084 0.709400 1.080900 13.343600 -7.724261 -2.180634 -1.100973 -81.695353 -0.802994 27.888563 13.753166 -29.007127 -4.479501 -0.361893 0.155104 -14.195501 23.459581 -10.705813 -4.778300 -7.125000 0.000000 0.000000 -2.334100 18.059800 1.496800 10.993067 3.298976 -0.573789 67.066897 2.026004 8.506574 -8.017061 19.178438 -2.797880 1.375474 0.305389 -1.273764 -10.950394 -31.492043 6.532800 7.125000 0.000000 0.000000 22.778700 -60.730200 -9.003100 
-5.264075 17.569223 2.133951 149.590641 74.669559 148.498805 1.902106 -3.277746 -1.880110 -15.130651 9.786120 -9.887434 1.436458 10.481191 26.753269 -1.888098 12.127476 0.283487 0.760300 -5.568400 -15.537200 -7.112750 2.911732 -6.180537 20.507729 -6.113727 4.332048 -1.868136 -9.892342 25.347685 -1.271080 -10.713784 -30.070487 -1.217300 -6.998500 19.710800 -4.432143 0.946041 3.301021 0.209112 0.949269 -0.349037 4.718709 0.283516 7.342335 -6.978246 0.674252 -17.663395 3.117667 3.304235 12.958800 0.650100 1.121500 13.139800 -7.712841 -2.211773 -1.099921 -81.755520 -0.418335 27.568805 13.674045 -28.932508 -4.448215 -0.353132 0.144860 -13.694514 22.935333 -10.506602 -4.569900 -7.125000 0.000000 0.000000 -2.697000 18.339900 1.713300 10.992037 3.282112 -0.595509 67.060793 1.520330 9.042556 -8.223058 19.480495 -2.863083 1.371423 0.330201 -1.877627 -10.857391 -31.738472 6.528700 7.125000 0.000000 0.000000 23.097500 -60.941400 -9.253600 
